<?xml version="1.0" encoding="UTF-8" standalone="no"?>
<!DOCTYPE svg PUBLIC "-//W3C//DTD SVG 1.1//EN" "http://www.w3.org/Graphics/SVG/1.1/DTD/svg11.dtd">
<svg width="100%" height="100%" viewBox="0 0 1080 1080" version="1.1" xmlns="http://www.w3.org/2000/svg" xmlns:xlink="http://www.w3.org/1999/xlink" xml:space="preserve" xmlns:serif="http://www.serif.com/" style="fill-rule:evenodd;clip-rule:evenodd;stroke-linejoin:round;stroke-miterlimit:2;">
    <g transform="matrix(1,0,0,1,-1169.95,0)">
        <g id="Artboard1" transform="matrix(1,0,0,1,1169.95,0)">
            <rect x="0" y="0" width="1080" height="1080" style="fill:none;"/>
            <g transform="matrix(2.66826,0,0,2.66826,-578.849,97.0504)">
                <path d="M290.533,134.615L290.533,163.127L262.981,163.127L262.981,134.615L250.981,134.615L250.981,201.911L262.981,201.911L262.981,173.207L290.533,173.207L290.533,201.911L302.533,201.911L302.533,134.615L290.533,134.615Z" style="fill:rgb(24,34,17);fill-rule:nonzero;"/>
                <path d="M353.221,188.759C351.109,190.775 346.885,193.271 341.221,193.271C331.525,193.271 327.109,188.471 326.725,178.295L359.461,178.295C359.941,174.455 360.037,171.575 360.037,168.887C360.037,155.927 352.549,147.479 339.301,147.479C325.189,147.479 315.109,156.887 315.109,175.031C315.109,193.943 323.557,202.871 339.877,202.871C349.093,202.871 354.469,200.375 358.405,197.303L353.221,188.759ZM338.821,156.695C345.637,156.695 348.805,160.631 348.805,167.927L348.805,170.039L326.917,170.039C327.301,161.303 332.197,156.695 338.821,156.695Z" style="fill:rgb(24,34,17);fill-rule:nonzero;"/>
                <path d="M397.669,188.567C395.749,191.351 392.005,193.655 387.493,193.655C382.885,193.655 380.389,190.871 380.389,187.223C380.389,181.271 387.013,178.775 397.669,179.351L397.669,188.567ZM388.645,147.575C377.125,147.575 371.941,154.295 369.925,157.079L378.373,163.415C379.813,160.535 382.789,157.271 388.645,157.271C394.021,157.271 397.669,159.287 397.669,166.295L397.669,171.095C380.101,170.423 368.773,176.183 368.773,188.279C368.773,195.767 374.245,202.871 384.421,202.871C392.677,202.871 396.709,199.223 398.917,196.439L399.301,196.439C400.837,199.895 403.813,202.487 408.997,202.487C410.821,202.487 412.741,202.199 414.469,201.143L414.469,192.887L413.029,192.887C410.053,192.887 408.805,190.775 408.805,187.127L408.805,164.663C408.805,152.375 401.509,147.575 388.645,147.575Z" style="fill:rgb(24,34,17);fill-rule:nonzero;"/>
                <path d="M424.357,129.143L424.357,189.719C424.357,197.879 428.965,202.679 437.125,202.679C439.909,202.679 442.117,202.199 443.941,201.431L443.941,191.927C443.269,192.215 442.405,192.407 441.061,192.407C437.893,192.407 436.165,190.871 436.165,186.647L436.165,129.143L424.357,129.143Z" style="fill:rgb(24,34,17);fill-rule:nonzero;"/>
                <path d="M469.669,202.391C477.637,202.391 481.573,200.663 483.493,199.415L480.325,190.391C478.501,191.735 475.813,192.599 472.741,192.599C468.805,192.599 466.309,190.487 466.309,185.879L466.309,157.559L480.229,157.559L480.229,148.439L466.309,148.439L466.309,134.711L458.629,134.711L454.693,147.767L447.397,150.167L447.397,157.559L454.693,157.559L454.693,185.879C454.693,197.783 460.645,202.391 469.669,202.391Z" style="fill:rgb(113,152,74);fill-rule:nonzero;"/>
                <path d="M526.405,188.759C524.293,190.775 520.069,193.271 514.405,193.271C504.709,193.271 500.293,188.471 499.909,178.295L532.645,178.295C533.125,174.455 533.221,171.575 533.221,168.887C533.221,155.927 525.733,147.479 512.485,147.479C498.373,147.479 488.293,156.887 488.293,175.031C488.293,193.943 496.741,202.871 513.061,202.871C522.277,202.871 527.653,200.375 531.589,197.303L526.405,188.759ZM512.005,156.695C518.821,156.695 521.989,160.631 521.989,167.927L521.989,170.039L500.101,170.039C500.485,161.303 505.381,156.695 512.005,156.695Z" style="fill:rgb(113,152,74);fill-rule:nonzero;"/>
                <path d="M570.853,188.567C568.933,191.351 565.189,193.655 560.677,193.655C556.069,193.655 553.573,190.871 553.573,187.223C553.573,181.271 560.197,178.775 570.853,179.351L570.853,188.567ZM561.829,147.575C550.309,147.575 545.125,154.295 543.109,157.079L551.557,163.415C552.997,160.535 555.973,157.271 561.829,157.271C567.205,157.271 570.853,159.287 570.853,166.295L570.853,171.095C553.285,170.423 541.957,176.183 541.957,188.279C541.957,195.767 547.429,202.871 557.605,202.871C565.861,202.871 569.893,199.223 572.101,196.439L572.485,196.439C574.021,199.895 576.997,202.487 582.181,202.487C584.005,202.487 585.925,202.199 587.653,201.143L587.653,192.887L586.213,192.887C583.237,192.887 581.989,190.775 581.989,187.127L581.989,164.663C581.989,152.375 574.693,147.575 561.829,147.575Z" style="fill:rgb(113,152,74);fill-rule:nonzero;"/>
            </g>
        </g>
    </g>
</svg>
