<?xml version="1.0" encoding="UTF-8" standalone="no"?><!DOCTYPE svg PUBLIC "-//W3C//DTD SVG 1.1//EN" "http://www.w3.org/Graphics/SVG/1.1/DTD/svg11.dtd"><svg width="100%" height="100%" viewBox="0 0 334 334" version="1.1" xmlns="http://www.w3.org/2000/svg" xmlns:xlink="http://www.w3.org/1999/xlink" xml:space="preserve" xmlns:serif="http://www.serif.com/" style="fill-rule:evenodd;clip-rule:evenodd;stroke-linejoin:round;stroke-miterlimit:2;"><g id="with-shadow" serif:id="with shadow"></g><rect id="logomark" x="0" y="-0" width="333.333" height="333.333" style="fill:none;"/><g id="healtea-logo" serif:id="healtea logo"><g id="logo"><g id="right-leaf" serif:id="right leaf"><path d="M314.652,35.833c0.248,-0.459 0.528,-0.908 0.715,-1.406c12.285,-32.745 -14.316,172.166 -137.91,135.673l-0.321,-1.651c0.107,-0.244 0.215,1.893 0.321,1.651c88.758,24.933 131.316,-91.658 137.195,-134.267Zm-77.785,60.746c-24.022,8.191 -65.091,45.384 -77.518,54.045c-1.203,0.839 -0.387,-1.075 0.694,-2.079c13.785,-12.811 63.836,-59.293 84.28,-58.127c-2.596,2.134 -5.079,4.185 -7.456,6.161Z" style="fill:#445d2e;"/><path d="M158.217,151.138c1.237,-9.139 7.815,-46.783 34.557,-71.642c39.624,-36.833 105.688,-18.088 122.659,-54.521c16.92,-36.32 -25.046,180.622 -142.058,144.366c-0.011,-0.011 -0.021,-0.021 -0.031,-0.032c12.209,-28.527 21.951,-39.828 69.464,-78.891c-21.521,-1.228 -69.001,44.921 -84.591,60.72Z" style="fill:#71984a;"/></g><g id="left-leaf" serif:id="left leaf"><path d="M160.693,252.073c-0.201,-13.296 -3.17,-26.837 -7.415,-37.164c-12.463,-30.321 -39.245,-67.91 -76.638,-83.896c-3.589,-3.4 -7.463,-7.136 -11.671,-11.298c43.474,12.463 74.477,54.563 88.309,88.054c5.394,13.061 7.639,28.71 7.415,44.304Zm-23.991,-45.785c0.97,1.987 1.966,1.685 2.99,3.861c-0,0 -45.736,25.192 -99.63,-35.698c-28.958,-32.716 -22.313,-55.868 -24.908,-107.093c0,-0 0.112,0.153 0.345,0.442c1.892,46.474 -2.934,68.447 24.563,99.512c45.769,51.71 81.125,46.486 96.64,38.976Z" style="fill:#445d2e;"/><path d="M141.102,210.149c0,0 -45.735,18.052 -99.63,-42.837c-28.958,-32.717 -24.577,-60.628 -27.172,-111.853c0,-0 17.172,23.643 72.459,38.077c58.352,15.235 68.446,61.079 76.987,88.055c11.218,35.434 13.385,107.707 15.85,123.753c2.465,16.045 -27.172,-0 -27.172,-0c-0,-0 11.649,-62.941 -0,-97.575c-11.23,-33.388 -42.571,-75.591 -86.044,-88.054c43.011,42.551 51.255,40.567 74.722,90.434Z" style="fill:#71984a;"/></g></g></g></svg>