<?xml version="1.0" encoding="UTF-8" standalone="no"?><!DOCTYPE svg PUBLIC "-//W3C//DTD SVG 1.1//EN" "http://www.w3.org/Graphics/SVG/1.1/DTD/svg11.dtd"><svg width="100%" height="100%" viewBox="0 0 1305 334" version="1.1" xmlns="http://www.w3.org/2000/svg" xmlns:xlink="http://www.w3.org/1999/xlink" xml:space="preserve" xmlns:serif="http://www.serif.com/" style="fill-rule:evenodd;clip-rule:evenodd;stroke-linejoin:round;stroke-miterlimit:2;"><rect id="onWhiteBg" x="-0" y="0" width="1304.17" height="333.333" style="fill:none;"/><g id="healtea-logo" serif:id="healtea logo"><g><path d="M258.451,309.992l-50.706,0l-0,-96.555l-88.289,-0l0,96.555l-50.706,0l-0,-228.379l50.706,0l0,95.459l88.289,-0l-0,-95.459l50.706,0l0,228.379Z" style="fill:#182211;"/><path d="M360.461,144.939c10.24,-0 19.611,1.672 28.112,5.016c8.5,3.343 15.808,8.203 21.923,14.577c6.114,6.374 10.887,14.185 14.317,23.433c3.43,9.248 5.145,19.724 5.145,31.428c-0,3.657 -0.149,6.636 -0.447,8.934c-0.299,2.299 -0.846,4.128 -1.641,5.487c-0.795,1.358 -1.864,2.299 -3.206,2.821c-1.343,0.522 -3.058,0.784 -5.146,0.784l-89.183,-0c1.491,13.584 5.419,23.433 11.782,29.546c6.363,6.113 14.565,9.17 24.607,9.17c5.369,-0 9.992,-0.679 13.87,-2.038c3.877,-1.358 7.332,-2.873 10.365,-4.545c3.032,-1.672 5.816,-3.188 8.351,-4.546c2.536,-1.358 5.195,-2.038 7.979,-2.038c3.679,0 6.463,1.411 8.352,4.232l13.422,17.399c-4.772,5.748 -9.917,10.424 -15.435,14.029c-5.518,3.605 -11.186,6.427 -17.002,8.464c-5.816,2.038 -11.633,3.449 -17.449,4.232c-5.816,0.784 -11.359,1.176 -16.629,1.176c-10.837,0 -21.003,-1.855 -30.498,-5.564c-9.495,-3.71 -17.797,-9.222 -24.906,-16.537c-7.109,-7.315 -12.726,-16.406 -16.852,-27.274c-4.126,-10.868 -6.189,-23.512 -6.189,-37.932c-0,-10.868 1.765,-21.161 5.294,-30.879c3.53,-9.719 8.6,-18.235 15.212,-25.55c6.612,-7.315 14.615,-13.114 24.011,-17.399c9.395,-4.284 20.009,-6.426 31.841,-6.426Zm0.894,33.543c-8.848,0 -15.758,2.639 -20.73,7.916c-4.971,5.277 -8.252,12.879 -9.843,22.806l57.716,0c0,-3.866 -0.472,-7.628 -1.417,-11.285c-0.944,-3.658 -2.485,-6.923 -4.623,-9.797c-2.138,-2.874 -4.946,-5.199 -8.426,-6.975c-3.48,-1.777 -7.705,-2.665 -12.677,-2.665Z" style="fill:#182211;"/><path d="M563.286,309.992c-4.375,0 -7.681,-0.627 -9.918,-1.881c-2.237,-1.254 -4.101,-3.866 -5.592,-7.837l-3.281,-8.935c-3.878,3.449 -7.606,6.479 -11.186,9.092c-3.579,2.612 -7.282,4.833 -11.11,6.661c-3.828,1.829 -7.904,3.187 -12.229,4.076c-4.325,0.888 -9.123,1.332 -14.392,1.332c-7.059,-0 -13.472,-0.967 -19.239,-2.9c-5.766,-1.933 -10.663,-4.781 -14.69,-8.542c-4.026,-3.762 -7.133,-8.439 -9.321,-14.029c-2.187,-5.591 -3.281,-12.044 -3.281,-19.358c0,-5.748 1.392,-11.652 4.176,-17.713c2.784,-6.06 7.606,-11.573 14.466,-16.536c6.861,-4.964 16.107,-9.118 27.74,-12.462c11.632,-3.344 26.297,-5.224 43.995,-5.642l0,-6.897c0,-9.51 -1.864,-16.38 -5.593,-20.612c-3.728,-4.232 -9.022,-6.349 -15.883,-6.349c-5.468,0 -9.942,0.627 -13.422,1.881c-3.48,1.254 -6.587,2.665 -9.321,4.233c-2.734,1.567 -5.394,2.978 -7.979,4.232c-2.585,1.254 -5.667,1.881 -9.246,1.881c-3.182,-0 -5.891,-0.81 -8.128,-2.43c-2.237,-1.62 -4.002,-3.631 -5.294,-6.035l-8.352,-15.204c9.346,-8.673 19.711,-15.126 31.095,-19.358c11.384,-4.232 23.588,-6.348 36.613,-6.348c9.346,-0 17.772,1.593 25.278,4.78c7.507,3.188 13.87,7.629 19.09,13.324c5.22,5.695 9.221,12.461 12.005,20.298c2.784,7.838 4.176,16.406 4.176,25.707l0,101.571l-21.177,0Zm-53.093,-29.625c5.966,0 11.186,-1.097 15.66,-3.292c4.474,-2.194 8.997,-5.747 13.571,-10.658l0,-22.572c-9.246,0.418 -16.852,1.254 -22.818,2.508c-5.965,1.254 -10.688,2.822 -14.168,4.703c-3.48,1.881 -5.891,4.023 -7.233,6.426c-1.342,2.404 -2.013,5.016 -2.013,7.837c-0,5.539 1.441,9.431 4.325,11.678c2.883,2.247 7.109,3.37 12.676,3.37Z" style="fill:#182211;"/><rect x="618.764" y="75.343" width="46.232" height="234.649" style="fill:#182211;"/></g><g><path d="M1011.41,144.939c10.241,-0 19.611,1.672 28.112,5.016c8.501,3.343 15.809,8.203 21.923,14.577c6.115,6.374 10.887,14.185 14.317,23.433c3.43,9.248 5.146,19.724 5.146,31.428c-0,3.657 -0.15,6.636 -0.448,8.934c-0.298,2.299 -0.845,4.128 -1.64,5.487c-0.796,1.358 -1.865,2.299 -3.207,2.821c-1.342,0.522 -3.057,0.784 -5.145,0.784l-89.184,-0c1.492,13.584 5.419,23.433 11.782,29.546c6.363,6.113 14.566,9.17 24.608,9.17c5.369,-0 9.992,-0.679 13.869,-2.038c3.878,-1.358 7.333,-2.873 10.365,-4.545c3.033,-1.672 5.817,-3.188 8.352,-4.546c2.535,-1.358 5.195,-2.038 7.979,-2.038c3.678,0 6.462,1.411 8.351,4.232l13.423,17.399c-4.773,5.748 -9.918,10.424 -15.436,14.029c-5.518,3.605 -11.185,6.427 -17.001,8.464c-5.817,2.038 -11.633,3.449 -17.449,4.232c-5.817,0.784 -11.36,1.176 -16.629,1.176c-10.837,0 -21.003,-1.855 -30.498,-5.564c-9.495,-3.71 -17.797,-9.222 -24.906,-16.537c-7.109,-7.315 -12.726,-16.406 -16.853,-27.274c-4.126,-10.868 -6.189,-23.512 -6.189,-37.932c0,-10.868 1.765,-21.161 5.295,-30.879c3.529,-9.719 8.6,-18.235 15.211,-25.55c6.612,-7.315 14.616,-13.114 24.011,-17.399c9.396,-4.284 20.01,-6.426 31.841,-6.426Zm0.895,33.543c-8.849,0 -15.759,2.639 -20.73,7.916c-4.971,5.277 -8.252,12.879 -9.843,22.806l57.716,0c-0,-3.866 -0.473,-7.628 -1.417,-11.285c-0.945,-3.658 -2.486,-6.923 -4.623,-9.797c-2.138,-2.874 -4.947,-5.199 -8.427,-6.975c-3.479,-1.777 -7.705,-2.665 -12.676,-2.665Z" style="fill:#71984a;"/><path d="M1214.24,309.992c-4.374,0 -7.68,-0.627 -9.917,-1.881c-2.237,-1.254 -4.101,-3.866 -5.593,-7.837l-3.281,-8.935c-3.877,3.449 -7.606,6.479 -11.185,9.092c-3.579,2.612 -7.283,4.833 -11.111,6.661c-3.828,1.829 -7.904,3.187 -12.229,4.076c-4.325,0.888 -9.122,1.332 -14.392,1.332c-7.059,-0 -13.472,-0.967 -19.238,-2.9c-5.767,-1.933 -10.663,-4.781 -14.69,-8.542c-4.027,-3.762 -7.134,-8.439 -9.321,-14.029c-2.187,-5.591 -3.281,-12.044 -3.281,-19.358c-0,-5.748 1.392,-11.652 4.176,-17.713c2.784,-6.06 7.606,-11.573 14.466,-16.536c6.86,-4.964 16.107,-9.118 27.739,-12.462c11.633,-3.344 26.298,-5.224 43.996,-5.642l-0,-6.897c-0,-9.51 -1.865,-16.38 -5.593,-20.612c-3.728,-4.232 -9.023,-6.349 -15.883,-6.349c-5.468,0 -9.943,0.627 -13.422,1.881c-3.48,1.254 -6.587,2.665 -9.321,4.233c-2.735,1.567 -5.394,2.978 -7.979,4.232c-2.585,1.254 -5.667,1.881 -9.247,1.881c-3.181,-0 -5.89,-0.81 -8.128,-2.43c-2.237,-1.62 -4.001,-3.631 -5.294,-6.035l-8.352,-15.204c9.346,-8.673 19.711,-15.126 31.095,-19.358c11.384,-4.232 23.589,-6.348 36.613,-6.348c9.346,-0 17.772,1.593 25.279,4.78c7.506,3.188 13.87,7.629 19.089,13.324c5.22,5.695 9.222,12.461 12.006,20.298c2.784,7.838 4.176,16.406 4.176,25.707l-0,101.571l-21.178,0Zm-53.092,-29.625c5.965,0 11.185,-1.097 15.659,-3.292c4.474,-2.194 8.998,-5.747 13.572,-10.658l-0,-22.572c-9.247,0.418 -16.853,1.254 -22.818,2.508c-5.966,1.254 -10.688,2.822 -14.168,4.703c-3.48,1.881 -5.891,4.023 -7.233,6.426c-1.343,2.404 -2.014,5.016 -2.014,7.837c0,5.539 1.442,9.431 4.325,11.678c2.884,2.247 7.109,3.37 12.677,3.37Z" style="fill:#71984a;"/></g></g><g id="logo"><g id="right-leaf" serif:id="right leaf"><path d="M985.939,32.337c0.247,-0.458 0.528,-0.907 0.715,-1.405c12.285,-32.745 -14.317,172.166 -137.91,135.673l-0.321,-1.651c0.107,-0.244 0.214,1.892 0.321,1.651c88.758,24.933 131.316,-91.658 137.195,-134.268Zm-77.786,60.747c-24.021,8.191 -65.091,45.384 -77.517,54.045c-1.203,0.839 -0.387,-1.075 0.694,-2.08c13.785,-12.811 63.836,-59.292 84.279,-58.126c-2.596,2.134 -5.079,4.185 -7.456,6.161Z" style="fill:#445d2e;"/><path d="M829.504,147.643c1.237,-9.139 7.815,-46.783 34.557,-71.642c39.623,-36.833 105.688,-18.088 122.659,-54.521c16.919,-36.32 -25.046,180.622 -142.059,144.366c-0.01,-0.011 -0.02,-0.022 -0.03,-0.032c12.208,-28.527 21.951,-39.828 69.464,-78.891c-21.522,-1.228 -69.002,44.921 -84.591,60.72Z" style="fill:#71984a;"/></g><g id="left-leaf" serif:id="left leaf"><path d="M831.98,248.578c-0.202,-13.296 -3.171,-26.837 -7.416,-37.164c-12.462,-30.321 -39.245,-67.91 -76.637,-83.896c-3.589,-3.4 -7.464,-7.136 -11.671,-11.298c43.473,12.463 74.477,54.563 88.308,88.054c5.394,13.061 7.64,28.709 7.416,44.304Zm-23.991,-45.785c0.97,1.987 1.965,1.685 2.989,3.861c0,0 -45.735,25.192 -99.63,-35.698c-28.958,-32.716 -22.313,-55.868 -24.907,-107.093c-0,-0 0.111,0.153 0.345,0.442c1.892,46.474 -2.934,68.446 24.562,99.512c45.77,51.709 81.126,46.486 96.641,38.976Z" style="fill:#445d2e;"/><path d="M812.389,206.654c-0,0 -45.735,18.052 -99.63,-42.837c-28.958,-32.717 -24.577,-60.628 -27.172,-111.853c0,-0 17.171,23.643 72.458,38.077c58.353,15.235 68.446,61.079 76.987,88.055c11.219,35.434 13.386,107.707 15.85,123.752c2.465,16.046 -27.171,0 -27.171,0c-0,0 11.648,-62.94 -0,-97.574c-11.23,-33.388 -42.571,-75.591 -86.045,-88.054c43.012,42.551 51.255,40.567 74.723,90.434Z" style="fill:#71984a;"/></g></g><g id="with-shadow" serif:id="with shadow"></g></svg>